<?xml version="1.0" encoding="UTF-8"?>
<svg id="Layer_1" data-name="Layer 1" xmlns="http://www.w3.org/2000/svg" viewBox="0 0 2229 234">
  <defs>
    <style>
      .cls-1 {
        fill: #ddf1ff;
      }

      .cls-2 {
        fill: #49b7ff;
      }
    </style>
  </defs>
  <rect class="cls-1" width="2229" height="234" rx="64" ry="64"/>
  <path class="cls-2" d="m158.75,150.66h-62.48l-11.92,28.84h-31.91L112.42,44.93h30.76l60.17,134.57h-32.68l-11.92-28.84h0Zm-9.8-23.65l-21.34-51.52-21.34,51.52h42.68,0Z"/>
  <g>
    <path d="m261.02,164.12l7.11-15c10,9.04,27.11,15.57,44.41,15.57,23.26,0,33.26-9.04,33.26-20.76,0-32.87-81.51-12.11-81.51-62.1,0-20.76,16.15-38.45,51.52-38.45,15.76,0,32.1,4.23,43.26,11.92l-6.34,15.38c-11.73-7.5-24.99-10.96-36.91-10.96-22.88,0-32.68,9.61-32.68,21.34,0,32.87,81.51,12.3,81.51,61.71,0,20.57-16.53,38.26-52.1,38.26-20.57,0-40.76-6.92-51.52-16.92h-.01Z"/>
    <path d="m380.6,128.55c0-30.38,22.49-51.91,53.06-51.91s52.87,21.53,52.87,51.91-22.3,52.1-52.87,52.1-53.06-21.72-53.06-52.1h0Zm87.28,0c0-21.72-14.61-35.76-34.22-35.76s-34.41,14.03-34.41,35.76,14.8,35.95,34.41,35.95,34.22-14.23,34.22-35.95Z"/>
  </g>
  <path d="m608.79,120.87v58.63h-18.46v-56.52c0-19.99-10-29.8-27.49-29.8-19.61,0-32.3,11.73-32.3,33.83v52.48h-18.46v-101.89h17.69v15.38c7.5-10.38,20.57-16.34,36.72-16.34,24.8,0,42.29,14.23,42.29,44.22h.01Z"/>
  <path d="m741.06,77.61v88.05c0,35.95-18.26,52.29-52.87,52.29-18.65,0-37.49-5.19-48.64-15.19l8.84-14.23c9.42,8.07,24.22,13.27,39.22,13.27,24.03,0,34.99-11.15,34.99-34.22v-8.07c-8.84,10.57-22.11,15.76-36.72,15.76-29.41,0-51.71-19.99-51.71-49.41s22.3-49.21,51.71-49.21c15.19,0,29.03,5.58,37.68,16.73v-15.76h17.5Zm-18.07,48.25c0-19.8-14.61-33.07-34.99-33.07s-35.18,13.27-35.18,33.07,14.61,33.26,35.18,33.26,34.99-13.65,34.99-33.26Z"/>
  <path d="m818.54,128.55c0-30.38,22.49-51.91,53.06-51.91s52.87,21.53,52.87,51.91-22.3,52.1-52.87,52.1-53.06-21.72-53.06-52.1h0Zm87.28,0c0-21.72-14.61-35.76-34.22-35.76s-34.41,14.03-34.41,35.76,14.8,35.95,34.41,35.95,34.22-14.23,34.22-35.95Z"/>
  <path d="m970.8,68.77v8.84h29.61v15.19h-29.22v86.7h-18.46v-86.7h-17.3v-15.19h17.3v-9.04c0-19.8,11.92-32.87,33.64-32.87,7.88,0,15.57,1.92,20.76,5.96l-5.58,14.03c-3.84-2.88-8.84-4.81-14.23-4.81-10.96,0-16.53,6.15-16.53,17.88h.01Z"/>
  <path d="m1068.07,44.93h31.14v134.57h-31.14V44.93Z"/>
  <path d="m1123.23,128.55c0-30.38,22.49-51.91,53.83-51.91,18.26,0,33.45,7.5,41.53,21.72l-14.03,9.04c-6.54-10-16.53-14.61-27.68-14.61-19.99,0-34.99,14.03-34.99,35.76s15,35.95,34.99,35.95c11.15,0,21.15-4.61,27.68-14.61l14.03,8.84c-8.07,14.23-23.26,21.92-41.53,21.92-31.34,0-53.83-21.72-53.83-52.1h0Z"/>
  <g>
    <path d="m1332.6,134.71h-82.67c2.31,17.88,16.73,29.8,36.91,29.8,11.92,0,21.92-4.04,29.41-12.3l10.19,11.92c-9.23,10.77-23.26,16.53-40.18,16.53-32.87,0-54.79-21.72-54.79-52.1s21.72-51.91,51.14-51.91,50.37,21.15,50.37,52.48c0,1.54-.19,3.84-.38,5.58h0Zm-82.67-13.27h65.36c-1.92-17.11-14.8-29.22-32.68-29.22s-30.76,11.92-32.68,29.22h0Z"/>
    <path d="m1491.01,117.98v61.52h-17.49v-13.46c-6.15,9.23-17.49,14.61-33.45,14.61-23.07,0-37.68-12.3-37.68-29.99,0-16.34,10.57-29.8,40.95-29.8h29.22v-3.65c0-15.57-9.04-24.61-27.3-24.61-12.11,0-24.42,4.23-32.3,10.96l-7.69-13.84c10.57-8.46,25.76-13.07,42.1-13.07,27.88,0,43.64,13.46,43.64,41.33h0Zm-18.46,30.38v-14.23h-28.45c-18.26,0-23.45,7.11-23.45,15.76,0,10.19,8.46,16.53,22.49,16.53s24.8-6.34,29.41-18.07h0Z"/>
  </g>
  <path d="m1621.92,120.87v58.63h-18.46v-56.52c0-19.99-10-29.8-27.49-29.8-19.61,0-32.3,11.73-32.3,33.83v52.48h-18.46v-101.89h17.69v15.38c7.5-10.38,20.57-16.34,36.72-16.34,24.8,0,42.29,14.23,42.29,44.22h.01Z"/>
  <path d="m1752.84,36.85v142.65h-17.69v-16.15c-8.27,11.53-21.34,17.3-36.33,17.3-29.8,0-51.52-20.96-51.52-52.1s21.72-51.91,51.52-51.91c14.42,0,27.11,5.38,35.57,16.34v-56.14h18.46-.01Zm-18.26,91.7c0-21.72-14.8-35.76-34.22-35.76s-34.41,14.03-34.41,35.76,14.8,35.95,34.41,35.95,34.22-14.23,34.22-35.95Z"/>
  <path d="m1861.46,61.65v46.91h67.48v16.53h-67.48v54.41h-19.22V44.93h94.97v16.73h-75.75Z"/>
  <path d="m1956.43,46.08c0-6.73,5.38-12.11,12.5-12.11s12.5,5.19,12.5,11.73c0,6.92-5.19,12.3-12.5,12.3s-12.5-5.19-12.5-11.92Zm3.27,31.53h18.46v101.89h-18.46v-101.89Z"/>
  <path d="m2068.12,76.65v17.88c-1.54-.19-2.88-.19-4.23-.19-19.8,0-32.1,12.11-32.1,34.41v50.75h-18.46v-101.89h17.69v17.11c6.54-11.92,19.22-18.07,37.1-18.07Z"/>
  <path d="m2181.54,134.71h-82.67c2.31,17.88,16.73,29.8,36.91,29.8,11.92,0,21.92-4.04,29.41-12.3l10.19,11.92c-9.23,10.77-23.26,16.53-40.18,16.53-32.88,0-54.79-21.72-54.79-52.1s21.72-51.91,51.14-51.91,50.37,21.15,50.37,52.48c0,1.54-.19,3.84-.38,5.58h0Zm-82.67-13.27h65.36c-1.92-17.11-14.8-29.22-32.68-29.22s-30.76,11.92-32.68,29.22h0Z"/>
</svg>